<svg xmlns="http://www.w3.org/2000/svg" style="display: none;">
  
    <symbol id="icon-cog" viewBox="0 0 512 512">
      <path d="m512 288l0-64l-76-32c-3-6-5-12-8-18l31-77l-45-45l-76 31c-6-2-12-5-18-7l-32-76l-64 0l-32 76c-6 2-13 4-19 7l-76-30l-45 45l31 75c-3 7-5 13-8 19l-75 32l0 64l75 32c3 6 5 13 8 19l-30 76l45 45l76-31c6 3 12 5 18 7l32 76l64 0l32-76c6-2 12-5 18-8l77 31l45-45l-32-76c3-6 5-12 7-18z m-256 64c-53 0-96-43-96-96c0-53 43-96 96-96c52 0 96 43 96 96c0 53-44 96-96 96z"/>
    </symbol>
  
    <symbol id="icon-user" viewBox="0 0 512 512">
      <path d="m256 256c-106 0-192 86-192 192c0 35 29 64 64 64l256 0c35 0 64-29 64-64c0-106-86-192-192-192z m96-160c0 53-43 96-96 96c-53 0-96-43-96-96c0-53 43-96 96-96c53 0 96 43 96 96z"/>
    </symbol>
  
    <symbol id="icon-key-stroke" viewBox="0 0 512 512">
      <path d="m352 64c53 0 96 43 96 96c0 53-43 96-96 96c-5 0-10-1-17-2l-33-6l-24 24l-3 3l-19 19l0 26l-64 0l0 64l-64 0l0 64l-64 0l0-38l200-200l-6-33c-1-7-2-12-2-17c0-53 43-96 96-96m0-64c-88 0-160 72-160 160c0 10 1 20 3 29l-195 195l0 128l192 0l0-64l64 0l0-64l64 0l0-64l3-3c9 2 19 3 29 3c88 0 160-72 160-160c0-88-72-160-160-160z m32 160c0 18-14 32-32 32c-18 0-32-14-32-32c0-18 14-32 32-32c18 0 32 14 32 32z"/>
    </symbol>
  
    <symbol id="icon-plus" viewBox="0 0 512 512">
      <path d="m512 192l-192 0l0-192l-128 0l0 192l-192 0l0 128l192 0l0 192l128 0l0-192l192 0z"/>
    </symbol>
  
</svg>
